<svg width="32" height="32" viewBox="0 0 32 32" fill="none" xmlns="http://www.w3.org/2000/svg">
<circle cx="16" cy="16" r="16" fill="#E85353"/>
<path d="M23.9594 12.705C23.9218 11.8546 23.7844 11.2701 23.5873 10.7635C23.3841 10.2258 23.0715 9.74446 22.662 9.34427C22.2618 8.93786 21.7772 8.62205 21.2457 8.42204C20.7363 8.22509 20.1548 8.08753 19.3045 8.05008C18.4478 8.00938 18.1758 8 16.0031 8C13.8304 8 13.5584 8.00938 12.705 8.04689C11.8547 8.08441 11.2701 8.22202 10.7637 8.41885C10.2258 8.62205 9.74446 8.93468 9.34427 9.34427C8.93786 9.74443 8.62221 10.229 8.42204 10.7604C8.22509 11.2701 8.08757 11.8515 8.05008 12.7018C8.00941 13.5584 8 13.8304 8 16.0031C8 18.1758 8.00941 18.4478 8.04689 19.3013C8.08441 20.1516 8.22202 20.7361 8.41901 21.2427C8.62221 21.7804 8.93786 22.2618 9.34427 22.6619C9.74446 23.0684 10.229 23.3842 10.7605 23.5842C11.2701 23.7811 11.8515 23.9187 12.7019 23.9561C13.5553 23.9938 13.8274 24.003 16.0001 24.003C18.1728 24.003 18.4447 23.9938 19.2982 23.9561C20.1485 23.9187 20.7331 23.7812 21.2395 23.5842C21.7714 23.3785 22.2544 23.064 22.6577 22.6608C23.0609 22.2576 23.3755 21.7746 23.5812 21.2427C23.778 20.7331 23.9156 20.1516 23.9531 19.3013C23.9906 18.4478 24 18.1758 24 16.0031C24 13.8304 23.9968 13.5584 23.9594 12.705ZM22.5182 19.2387C22.4838 20.0203 22.3525 20.4423 22.2431 20.7237C21.9742 21.4208 21.4209 21.9742 20.7237 22.2431C20.4423 22.3525 20.0173 22.4838 19.2387 22.5181C18.3947 22.5557 18.1415 22.565 16.0063 22.565C13.8711 22.565 13.6147 22.5557 12.7737 22.5181C11.9921 22.4838 11.5701 22.3525 11.2887 22.2431C10.9418 22.1149 10.6261 21.9117 10.3697 21.6459C10.104 21.3865 9.90077 21.0738 9.77253 20.7269C9.66312 20.4455 9.53185 20.0203 9.49755 19.2419C9.45991 18.3979 9.45066 18.1446 9.45066 16.0093C9.45066 13.8741 9.45991 13.6178 9.49755 12.7769C9.53185 11.9953 9.66312 11.5733 9.77253 11.2919C9.90077 10.9449 10.104 10.6291 10.3729 10.3727C10.6322 10.107 10.9449 9.9038 11.2919 9.77572C11.5733 9.6663 11.9985 9.535 12.7769 9.50058C13.621 9.46307 13.8743 9.45369 16.0093 9.45369C18.1478 9.45369 18.4009 9.46307 19.2419 9.50058C20.0235 9.53503 20.4455 9.66627 20.7269 9.77569C21.0738 9.9038 21.3896 10.107 21.6459 10.3727C21.9117 10.6322 22.1149 10.9449 22.2431 11.2919C22.3525 11.5733 22.4838 11.9984 22.5182 12.7769C22.5557 13.621 22.5651 13.8741 22.5651 16.0093C22.5651 18.1446 22.5558 18.3947 22.5182 19.2387Z" fill="white"/>
<path d="M16.0031 11.8918C13.7335 11.8918 11.8921 13.7331 11.8921 16.0028C11.8921 18.2724 13.7335 20.1137 16.0031 20.1137C18.2727 20.1137 20.114 18.2724 20.114 16.0028C20.114 13.7331 18.2727 11.8918 16.0031 11.8918ZM16.0031 18.6694C14.5307 18.6694 13.3363 17.4753 13.3363 16.0028C13.3363 14.5302 14.5307 13.3361 16.003 13.3361C17.4755 13.3361 18.6697 14.5302 18.6697 16.0028C18.6697 17.4753 17.4755 18.6694 16.0031 18.6694ZM21.2364 11.7292C21.2364 12.2592 20.8066 12.689 20.2765 12.689C19.7465 12.689 19.3168 12.2592 19.3168 11.7292C19.3168 11.1991 19.7465 10.7695 20.2766 10.7695C20.8066 10.7695 21.2364 11.1991 21.2364 11.7292Z" fill="white"/>
</svg>
