<svg width="32" height="32" viewBox="0 0 32 32" fill="none" xmlns="http://www.w3.org/2000/svg">
<circle cx="16" cy="16" r="16" fill="#FF2626"/>
<path d="M23.6704 12.1533C23.486 11.4679 22.9455 10.9275 22.2602 10.743C21.0081 10.4004 15.9998 10.4004 15.9998 10.4004C15.9998 10.4004 10.9917 10.4004 9.73965 10.73C9.06748 10.9144 8.51388 11.468 8.3295 12.1533C8 13.4053 8 16.0017 8 16.0017C8 16.0017 8 18.6112 8.3295 19.85C8.51405 20.5354 9.0543 21.0757 9.73975 21.2603C11.0049 21.603 16 21.603 16 21.603C16 21.603 21.0081 21.603 22.2602 21.2734C22.9456 21.0889 23.486 20.5486 23.6705 19.8632C23.9999 18.6112 23.9999 16.0149 23.9999 16.0149C23.9999 16.0149 24.0131 13.4052 23.6704 12.1533ZM14.4053 18.4003V13.603L18.5699 16.0017L14.4053 18.4003Z" fill="white"/>
</svg>
