<svg width="16" height="16" viewBox="0 0 16 16" fill="none" xmlns="http://www.w3.org/2000/svg">
<g clip-path="url(#clip0_6054_4)">
<mask id="mask0_6054_4" style="mask-type:luminance" maskUnits="userSpaceOnUse" x="0" y="0" width="16" height="16">
<path d="M16 0H0V16H16V0Z" fill="white"/>
</mask>
<g mask="url(#mask0_6054_4)">
<path d="M0.781382 15.9998C0.626847 15.9998 0.475774 15.954 0.347274 15.8682C0.218774 15.7824 0.118618 15.6603 0.0594765 15.5176C0.000334714 15.3748 -0.0151367 15.2177 0.0150195 15.0661C0.0451757 14.9146 0.119605 14.7753 0.228892 14.6661L14.6661 0.228849C14.8127 0.0823194 15.0114 0 15.2186 0C15.4258 0 15.6246 0.0823194 15.7711 0.228849C15.9176 0.375378 16 0.574115 16 0.781339C16 0.988563 15.9176 1.1873 15.7711 1.33383L1.33387 15.7711C1.26138 15.8437 1.17526 15.9013 1.08045 15.9406C0.985634 15.9798 0.884 15.9999 0.781382 15.9998Z" fill="white"/>
<path d="M15.219 15.9998C15.1164 15.9999 15.0148 15.9798 14.92 15.9406C14.8251 15.9013 14.739 15.8437 14.6665 15.7711L0.229337 1.33383C0.0828076 1.1873 0.000488281 0.988563 0.000488281 0.781339C0.000488281 0.574115 0.0828076 0.375378 0.229337 0.228849C0.375866 0.0823194 0.574603 0 0.781827 0C0.989051 0 1.18778 0.0823194 1.33431 0.228849L15.7715 14.6661C15.8808 14.7753 15.9552 14.9146 15.9854 15.0661C16.0155 15.2177 16.0001 15.3748 15.9409 15.5176C15.8818 15.6603 15.7816 15.7824 15.6531 15.8682C15.5246 15.954 15.3736 15.9998 15.219 15.9998Z" fill="white"/>
</g>
</g>
<defs>
<clipPath id="clip0_6054_4">
<rect width="16" height="16" fill="white"/>
</clipPath>
</defs>
</svg>
